#N canvas 752 128 1013 899 12;
#X text 681 120 costanti;
#X text 684 138 m = 10;
#X text 684 159 longCutoff = 50;
#X text 684 179 shortCutoff = 5;
#X text 684 215 a = (m - 1) / (shortCutoff - longCutoff);
#X text 684 235 b = 1 - longCutoff * a;
#X msg 471 832 1;
#X msg 504 833 -1;
#X obj 739 858 timer;
#X obj 739 802 bng 15 250 50 0 empty empty empty 17 7 0 10 -262144
-1 -1;
#X obj 739 822 t b b;
#X floatatom 739 882 0 0 0 0 - - -;
#X text 783 820 get millis from last value;
#X obj 511 870 +;
#X floatatom 511 904 0 0 0 0 - - -;
#X obj 739 912 v millis;
#X obj 269 333 <;
#X obj 288 302 v longCutoff;
#X obj 59 313 t f f;
#X obj 59 353 spigot;
#X obj 59 599 *;
#X obj 59 551 t f b;
#X obj 91 576 v a;
#X obj 59 691 +;
#X obj 59 624 t f b;
#X obj 91 659 v b;
#X obj 111 215 v newPos;
#X obj 59 820 *;
#X obj 59 732 t f b b;
#X obj 82 764 v newPos;
#X obj 82 794 -;
#X obj 152 762 v lastPos;
#X obj 59 907 +;
#X obj 59 845 t f b;
#X obj 91 874 v newPos;
#X obj 289 440 spigot;
#X obj 328 381 expr 1 - $f1;
#X obj 289 465 t b;
#X obj 289 490 v newPos;
#X obj 82 956 f;
#X obj 82 981 t f f;
#X obj 82 1015 v lastPos;
#X obj 207 1016 print lastPos;
#X obj 91 417 v shortCutoff;
#X obj 59 486 expr if($f1 < $f2 \, $f2 \, $f1);
#X obj 59 387 t f b;
#X obj 59 257 timer;
#X obj 59 227 t b b;
#X floatatom 408 247 0 0 0 0 - - -;
#X obj 59 282 t f b;
#X obj 59 189 t b f;
#X obj 589 321 v m;
#X msg 589 283 10;
#X obj 632 321 v longCutoff;
#X msg 630 284 50;
#X msg 729 283 5;
#X obj 596 399 v m;
#X obj 596 424 - 1;
#X obj 596 552 /;
#X obj 596 449 t f b b;
#X obj 640 479 v longCutoff;
#X obj 729 319 v shortCutoff;
#X obj 619 503 v shortCutoff;
#X obj 619 528 -;
#X obj 540 702 expr 1 - $f1 * $f2;
#X obj 596 636 t b f;
#X obj 571 669 v longCutoff;
#X obj 540 727 v b;
#X obj 596 577 t f f;
#X obj 628 608 v a;
#X obj 596 365 bng 15 250 50 0 empty empty empty 17 7 0 10 -262144
-1 -1;
#X obj 208 147 print tim;
#X msg 425 843 10;
#X obj 425 868 until;
#X obj 573 875 t b f;
#X obj 370 762 print;
#X obj 371 691 bng 15 250 50 0 empty empty empty 17 7 0 10 -262144
-1 -1;
#X obj 370 737 v a;
#X obj 115 528 print debug;
#X obj 573 904 v lastPos;
#X obj 430 134 v lastPos;
#X msg 430 103 0;
#X msg 43 34 1;
#X msg 76 35 -1;
#X obj 92 133 v lastPos;
#X obj 59 76 f;
#X obj 59 101 t f b;
#X obj 59 158 +;
#X msg 168 24 10;
#X obj 168 49 until;
#X connect 6 0 13 0;
#X connect 7 0 13 0;
#X connect 8 0 11 0;
#X connect 9 0 10 0;
#X connect 10 0 8 0;
#X connect 10 1 8 1;
#X connect 11 0 15 0;
#X connect 13 0 14 0;
#X connect 13 0 74 0;
#X connect 16 0 19 1;
#X connect 16 0 36 0;
#X connect 17 0 16 1;
#X connect 18 0 19 0;
#X connect 18 0 35 0;
#X connect 18 1 16 0;
#X connect 19 0 45 0;
#X connect 20 0 24 0;
#X connect 21 0 20 0;
#X connect 21 1 22 0;
#X connect 22 0 20 1;
#X connect 23 0 28 0;
#X connect 24 0 23 0;
#X connect 24 1 25 0;
#X connect 25 0 23 1;
#X connect 27 0 33 0;
#X connect 28 0 27 0;
#X connect 28 1 29 0;
#X connect 28 2 31 0;
#X connect 29 0 30 0;
#X connect 30 0 27 1;
#X connect 31 0 30 1;
#X connect 32 0 39 0;
#X connect 33 0 32 0;
#X connect 33 1 34 0;
#X connect 34 0 32 1;
#X connect 35 0 37 0;
#X connect 36 0 35 1;
#X connect 37 0 38 0;
#X connect 38 0 39 0;
#X connect 39 0 40 0;
#X connect 40 0 41 0;
#X connect 40 1 42 0;
#X connect 43 0 44 1;
#X connect 44 0 21 0;
#X connect 44 0 78 0;
#X connect 45 0 44 0;
#X connect 45 1 43 0;
#X connect 46 0 49 0;
#X connect 47 0 46 0;
#X connect 47 1 46 1;
#X connect 49 0 18 0;
#X connect 49 1 17 0;
#X connect 50 0 47 0;
#X connect 50 1 26 0;
#X connect 52 0 51 0;
#X connect 54 0 53 0;
#X connect 55 0 61 0;
#X connect 56 0 57 0;
#X connect 57 0 59 0;
#X connect 58 0 68 0;
#X connect 59 0 58 0;
#X connect 59 1 62 0;
#X connect 59 2 60 0;
#X connect 60 0 63 1;
#X connect 62 0 63 0;
#X connect 63 0 58 1;
#X connect 64 0 67 0;
#X connect 65 0 66 0;
#X connect 65 1 64 1;
#X connect 66 0 64 0;
#X connect 68 0 65 0;
#X connect 68 1 69 0;
#X connect 70 0 56 0;
#X connect 72 0 73 0;
#X connect 73 0 6 0;
#X connect 74 0 79 0;
#X connect 74 1 79 0;
#X connect 76 0 77 0;
#X connect 77 0 75 0;
#X connect 79 0 13 1;
#X connect 81 0 80 0;
#X connect 82 0 85 0;
#X connect 83 0 85 0;
#X connect 84 0 87 1;
#X connect 85 0 86 0;
#X connect 86 0 87 0;
#X connect 86 1 84 0;
#X connect 87 0 50 0;
#X connect 88 0 89 0;
#X connect 89 0 82 0;
