#N canvas 682 210 684 561 12;
#X obj 71 58 oscparse;
#X obj 71 33 netreceive -b -u 7000;
#X obj 71 83 list trim;
#X obj 190 478 netsend -b -u;
#X msg 303 192 connect 127.0.0.1 8000;
#X msg 314 224 disconnect;
#X obj 82 268 oscformat filter;
#X obj 82 300 list prepend send;
#X obj 82 325 list trim;
#X obj 342 100 loadbang;
#X obj 342 125 t b b;
#X obj 421 385 print pd_sender;
#X obj 71 108 route direction;
#X obj 105 172 +;
#X obj 70 171 f;
#X obj 71 133 t b f;
#X connect 0 0 2 0;
#X connect 1 0 0 0;
#X connect 2 0 12 0;
#X connect 4 0 3 0;
#X connect 5 0 3 0;
#X connect 6 0 7 0;
#X connect 7 0 8 0;
#X connect 8 0 3 0;
#X connect 9 0 10 0;
#X connect 10 1 4 0;
#X connect 12 0 15 0;
#X connect 13 0 14 1;
#X connect 14 0 13 0;
#X connect 14 0 6 0;
#X connect 15 0 14 0;
#X connect 15 1 13 1;
