#N canvas 1232 62 684 561 12;
#X obj 71 58 oscparse;
#X obj 71 33 netreceive -b -u 7000;
#X obj 71 83 list trim;
#X obj 71 108 print;
#X obj 113 421 netsend -b -u;
#X msg 226 135 connect 127.0.0.1 8000;
#X msg 237 167 disconnect;
#X obj 260 282 oscformat filter;
#X msg 274 232 1;
#X obj 261 317 list prepend send;
#X obj 258 349 list trim;
#X connect 0 0 2 0;
#X connect 1 0 0 0;
#X connect 2 0 3 0;
#X connect 5 0 4 0;
#X connect 6 0 4 0;
#X connect 7 0 9 0;
#X connect 8 0 7 0;
#X connect 9 0 10 0;
#X connect 10 0 4 0;
