#N canvas 914 130 684 561 12;
#X obj 71 58 oscparse;
#X obj 71 33 netreceive -b -u 7000;
#X obj 71 83 list trim;
#X obj 71 108 print;
#X obj 113 421 netsend -b -u;
#X msg 226 135 connect 127.0.0.1 8000;
#X msg 237 167 disconnect;
#X obj 435 199 oscformat filter;
#X obj 435 231 list prepend send;
#X obj 435 256 list trim;
#X obj 226 82 loadbang;
#X obj 435 118 f 1;
#X obj 435 143 metro 1000;
#X obj 435 168 random 1000;
#X connect 0 0 2 0;
#X connect 1 0 0 0;
#X connect 2 0 3 0;
#X connect 5 0 4 0;
#X connect 6 0 4 0;
#X connect 7 0 8 0;
#X connect 8 0 9 0;
#X connect 9 0 4 0;
#X connect 10 0 5 0;
#X connect 10 0 11 0;
#X connect 11 0 12 0;
#X connect 12 0 13 0;
#X connect 13 0 7 0;
