#N canvas 752 128 1013 899 12;
#X text 681 120 costanti;
#X text 684 138 m = 10;
#X text 684 159 longCutoff = 50;
#X text 684 179 shortCutoff = 5;
#X text 684 215 a = (m - 1) / (shortCutoff - longCutoff);
#X text 684 235 b = 1 - longCutoff * a;
#X obj 217 333 <;
#X obj 236 302 v longCutoff;
#X obj 59 313 t f f;
#X obj 59 353 spigot;
#X obj 111 215 v newPos;
#X obj 178 386 spigot;
#X obj 217 361 expr 1 - $f1;
#X obj 178 411 t b;
#X obj 178 436 v newPos;
#X obj 59 791 v lastPos;
#X obj 91 758 print lastPos;
#X obj 59 257 timer;
#X obj 59 227 t b b;
#X obj 59 282 t f b;
#X obj 59 189 t b f;
#X obj 596 369 v m;
#X obj 596 394 - 1;
#X obj 596 522 /;
#X obj 596 419 t f b b;
#X obj 642 449 v longCutoff;
#X obj 619 473 v shortCutoff;
#X obj 619 498 -;
#X obj 596 672 expr 1 - $f1 * $f2;
#X obj 596 606 t b f;
#X obj 596 639 v longCutoff;
#X obj 596 697 v b;
#X obj 596 547 t f f;
#X obj 628 571 v a;
#X obj 208 147 print tim;
#X msg 43 34 1;
#X msg 76 35 -1;
#X obj 92 133 v lastPos;
#X obj 59 76 f;
#X obj 59 101 t f b;
#X obj 59 158 +;
#X msg 168 24 10;
#X obj 168 49 until;
#X obj 596 294 loadbang;
#X obj 596 319 t b b;
#X msg 720 339 \; m 10 \; longCutoff 100 \; shortCutoff 5 \; lastPos
0;
#X obj 397 178 v antani;
#X msg 416 104 \; antani 23;
#X obj 393 282 expr $f1 + antani;
#X floatatom 382 235 5 0 0 0 - - -;
#X floatatom 393 307 5 0 0 0 - - -;
#X obj 59 600 expr if($f1 < shortCutoff \, shortCutoff \, $f1);
#X obj 59 630 expr ($f1 * a) + b;
#X obj 59 660 expr $f1 * (newPos - lastPos);
#X obj 59 690 expr $f1 + newPos;
#X obj 59 732 t f f;
#X obj 280 505 expr if($f1;
#X connect 6 0 9 1;
#X connect 6 0 12 0;
#X connect 7 0 6 1;
#X connect 8 0 9 0;
#X connect 8 0 11 0;
#X connect 8 1 6 0;
#X connect 9 0 51 0;
#X connect 11 0 13 0;
#X connect 12 0 11 1;
#X connect 13 0 14 0;
#X connect 14 0 55 0;
#X connect 17 0 19 0;
#X connect 18 0 17 0;
#X connect 18 1 17 1;
#X connect 19 0 8 0;
#X connect 19 1 7 0;
#X connect 20 0 18 0;
#X connect 20 1 10 0;
#X connect 21 0 22 0;
#X connect 22 0 24 0;
#X connect 23 0 32 0;
#X connect 24 0 23 0;
#X connect 24 1 26 0;
#X connect 24 2 25 0;
#X connect 25 0 27 1;
#X connect 26 0 27 0;
#X connect 27 0 23 1;
#X connect 28 0 31 0;
#X connect 29 0 30 0;
#X connect 29 1 28 1;
#X connect 30 0 28 0;
#X connect 32 0 29 0;
#X connect 32 1 33 0;
#X connect 35 0 38 0;
#X connect 36 0 38 0;
#X connect 37 0 40 1;
#X connect 38 0 39 0;
#X connect 39 0 40 0;
#X connect 39 1 37 0;
#X connect 40 0 20 0;
#X connect 41 0 42 0;
#X connect 42 0 35 0;
#X connect 43 0 44 0;
#X connect 44 0 21 0;
#X connect 44 1 45 0;
#X connect 48 0 50 0;
#X connect 49 0 48 0;
#X connect 51 0 52 0;
#X connect 52 0 53 0;
#X connect 53 0 54 0;
#X connect 54 0 55 0;
#X connect 55 0 15 0;
#X connect 55 1 16 0;
