#N canvas 682 210 684 561 12;
#X obj 71 58 oscparse;
#X obj 71 33 netreceive -b -u 7000;
#X obj 71 83 list trim;
#X obj 190 478 netsend -b -u;
#X msg 417 420 connect 127.0.0.1 8000;
#X msg 428 452 disconnect;
#X obj 71 310 list prepend send;
#X obj 71 335 list trim;
#X obj 417 376 loadbang;
#X obj 106 168 +;
#X obj 71 167 f;
#X obj 71 140 t b f;
#X obj 71 108 route rotary_0 rotary_1, f 44;
#X obj 258 169 +;
#X obj 223 168 f;
#X obj 223 140 t b f;
#X obj 71 269 oscformat rotary_0;
#X obj 223 268 oscformat rotary_1;
#X connect 0 0 2 0;
#X connect 1 0 0 0;
#X connect 2 0 12 0;
#X connect 4 0 3 0;
#X connect 5 0 3 0;
#X connect 6 0 7 0;
#X connect 7 0 3 0;
#X connect 8 0 4 0;
#X connect 9 0 10 1;
#X connect 10 0 9 0;
#X connect 10 0 16 0;
#X connect 11 0 10 0;
#X connect 11 1 9 1;
#X connect 12 0 11 0;
#X connect 12 1 15 0;
#X connect 13 0 14 1;
#X connect 14 0 13 0;
#X connect 14 0 17 0;
#X connect 15 0 14 0;
#X connect 15 1 13 1;
#X connect 16 0 6 0;
#X connect 17 0 6 0;
